<svg xmlns="http://www.w3.org/2000/svg" viewBox="0 0 500 500"><g id="freepik--Shield--inject-25"><path d="M104.88,137.14A131.47,131.47,0,0,0,77.78,205L59,202.26A150.22,150.22,0,0,1,90.3,125Z" style="fill:none;stroke:gray;stroke-linecap:round;stroke-linejoin:round"></path><path d="M269.19,356.69A151.1,151.1,0,0,1,109,331.1l12.59-14.2a132.18,132.18,0,0,0,140.06,22.36Z" style="fill:none;stroke:gray;stroke-linecap:round;stroke-linejoin:round"></path><path d="M261.64,339.26A132.18,132.18,0,0,1,121.58,316.9L109,331.1A151.06,151.06,0,0,1,65.8,265.7l18.25-5.33,7.69-2.24,13.46-3.93,90.87-26.54h0l6.2-1.81-66.1,74.57a109.44,109.44,0,0,0,28.51,18.33l41.54-94.05,2.56-.75-1.51-1.63-1-1-.62-.67-1.81-1.94-.53-.57-4-4.33-68.12-73.31-9.53-10.26-5.45-5.87L103.3,110.42A150.52,150.52,0,0,1,209.14,67.11v151L197.32,108.74a109.25,109.25,0,0,0-53.1,20.57l64.92,88.8L221,327.48a109,109,0,0,0,31.93-8.42l5.56,12.85Z" style="fill:none;stroke:gray;stroke-linecap:round;stroke-linejoin:round"></path><path d="M111,142.28a123.28,123.28,0,0,0-25.32,63.85L77.78,205a131.47,131.47,0,0,1,27.1-67.84Z" style="fill:none;stroke:gray;stroke-linecap:round;stroke-linejoin:round"></path><polyline points="202.28 225.85 204.51 223.33 206.02 221.63 206.32 221.29 209.14 218.11 203.36 218.11 201.8 218.11 168.45 218.11 99.14 218.11" style="fill:none;stroke:gray;stroke-linecap:round;stroke-linejoin:round"></polyline><polyline points="85.14 218.11 77.14 218.11 47.14 218.11" style="fill:none;stroke:gray;stroke-linecap:round;stroke-linejoin:round"></polyline><line x1="108.99" y1="331.1" x2="92.14" y2="350.11" style="fill:none;stroke:gray;stroke-linecap:round;stroke-linejoin:round"></line><polyline points="121.58 316.9 126.89 310.91 136.18 300.42" style="fill:none;stroke:gray;stroke-linecap:round;stroke-linejoin:round"></polyline><path d="M341.14,218.11a132,132,0,0,1-79.5,121.15l-3.19-7.35a124,124,0,0,0,27.89-210.83l5-6.27A131.79,131.79,0,0,1,341.14,218.11Z" style="fill:none;stroke:gray;stroke-linecap:round;stroke-linejoin:round"></path><path d="M286.34,121.08l-8.72,11a109.25,109.25,0,0,0-24-14.56l5.66-12.82A123.88,123.88,0,0,1,286.34,121.08Z" style="fill:none;stroke:gray;stroke-linecap:round;stroke-linejoin:round"></path><polyline points="291.33 114.81 318.14 81.11 348.14 81.11" style="fill:none;stroke:gray;stroke-linecap:round;stroke-linejoin:round"></polyline><line x1="277.62" y1="132.03" x2="209.14" y2="218.11" style="fill:none;stroke:gray;stroke-linecap:round;stroke-linejoin:round"></line><path d="M199.54,129.29l-2.22-20.55a109.25,109.25,0,0,0-53.1,20.57L156.42,146A88.86,88.86,0,0,1,199.54,129.29Z" style="fill:none;stroke:gray;stroke-linecap:round;stroke-linejoin:round"></path><path d="M219.09,310.19,221,327.48a109,109,0,0,0,31.93-8.42l-7-16.2A89.44,89.44,0,0,1,219.09,310.19Z" style="fill:none;stroke:gray;stroke-linecap:round;stroke-linejoin:round"></path><path d="M221,327.48a110.42,110.42,0,0,1-56.27-8.73l41.54-94.05-3.95,1.15-66.1,74.57a109.81,109.81,0,0,1-37-82.31c0-3.36.15-6.69.46-10a109.49,109.49,0,0,1,22.18-56.88,110.13,110.13,0,0,1,9.44-10.79,108.86,108.86,0,0,1,13-11.16l64.92,88.8Z" style="fill:none;stroke:gray;stroke-linecap:round;stroke-linejoin:round"></path><line x1="262.14" y1="98.11" x2="259.25" y2="104.65" style="fill:none;stroke:gray;stroke-linecap:round;stroke-linejoin:round"></line><line x1="253.59" y1="117.47" x2="209.14" y2="218.11" style="fill:none;stroke:gray;stroke-linecap:round;stroke-linejoin:round"></line><polyline points="195.04 87.69 195.81 94.82 197.32 108.74" style="fill:none;stroke:gray;stroke-linecap:round;stroke-linejoin:round"></polyline><line x1="209.14" y1="218.11" x2="89.14" y2="165.11" style="fill:none;stroke:gray;stroke-linecap:round;stroke-linejoin:round"></line><path d="M99.77,229.93l-13.92,1.51a124.94,124.94,0,0,1-.71-13.33h14A109.9,109.9,0,0,0,99.77,229.93Z" style="fill:none;stroke:gray;stroke-linecap:round;stroke-linejoin:round"></path><line x1="85.85" y1="231.44" x2="78.72" y2="232.21" style="fill:none;stroke:gray;stroke-linecap:round;stroke-linejoin:round"></line><line x1="209.14" y1="218.11" x2="103.24" y2="295.53" style="fill:none;stroke:gray;stroke-linecap:round;stroke-linejoin:round"></line><polyline points="156.14 338.11 159.03 331.57 164.69 318.75" style="fill:none;stroke:gray;stroke-linecap:round;stroke-linejoin:round"></polyline><polyline points="206.23 224.7 206.69 223.65 207.16 222.59 207.28 222.32 209.14 218.11" style="fill:none;stroke:gray;stroke-linecap:round;stroke-linejoin:round"></polyline><polyline points="224.26 366.23 222.47 341.4 220.96 327.48" style="fill:none;stroke:gray;stroke-linecap:round;stroke-linejoin:round"></polyline><polyline points="286.56 324.01 282.32 318.22 274.06 306.91" style="fill:none;stroke:gray;stroke-linecap:round;stroke-linejoin:round"></polyline><line x1="209.14" y1="218.11" x2="329.14" y2="271.11" style="fill:none;stroke:gray;stroke-linecap:round;stroke-linejoin:round"></line><line x1="209.14" y1="218.11" x2="339.56" y2="204.01" style="fill:none;stroke:gray;stroke-linecap:round;stroke-linejoin:round"></line><line x1="315.04" y1="140.69" x2="309.25" y2="144.93" style="fill:none;stroke:gray;stroke-linecap:round;stroke-linejoin:round"></line><line x1="297.94" y1="153.19" x2="209.14" y2="218.11" style="fill:none;stroke:gray;stroke-linecap:round;stroke-linejoin:round"></line><path d="M209.14,135.09c-12.28,11.44-43.71,23-80.36,47.51,0,0,2.29,82.85,80.36,128.14Z" style="fill:#4D63FF;stroke:#263238;stroke-linecap:round;stroke-linejoin:round"></path><path d="M209.14,135.09c12.28,11.44,43.71,23,80.36,47.51,0,0-2.29,82.85-80.36,128.14Z" style="fill:#263238;stroke:#263238;stroke-linecap:round;stroke-linejoin:round"></path><path d="M209.14,142.14c-14.82,10.29-40.51,20.09-74.47,42.81,0,0,2.13,76.77,74.47,118.73C281.48,261.72,283.6,185,283.6,185,249.65,162.23,224.08,152.43,209.14,142.14Z" style="fill:#263238;stroke:#263238;stroke-linecap:round;stroke-linejoin:round"></path><path d="M283.6,185c-34-22.72-59.52-32.52-74.46-42.81V303.68C281.48,261.72,283.6,185,283.6,185Z" style="fill:#4D63FF;stroke:#263238;stroke-linecap:round;stroke-linejoin:round"></path><path d="M237.35,219.54h-55.5a4.56,4.56,0,0,1-4.61-4.51V189.44c0-17.47,14.51-31.69,32.36-31.69S242,172,242,189.44V215A4.57,4.57,0,0,1,237.35,219.54Zm-50.89-9h46.28V189.44a23.15,23.15,0,0,0-46.28,0Z" style="fill:#fff;stroke:#263238;stroke-linecap:round;stroke-linejoin:round"></path><rect x="173.81" y="207.21" width="70.66" height="58.45" style="fill:#fff;stroke:#263238;stroke-linecap:round;stroke-linejoin:round"></rect><path d="M216.49,231.48a7.7,7.7,0,0,0-15.39,0,7.51,7.51,0,0,0,4,6.63l-1.29,13.28h9.89l-1.29-13.28A7.51,7.51,0,0,0,216.49,231.48Z" style="fill:#263238;stroke:#263238;stroke-linecap:round;stroke-linejoin:round"></path></g><g id="freepik--Character--inject-25"><ellipse cx="328.07" cy="435.61" rx="55" ry="8.5" style="fill:#263238"></ellipse><path d="M317.85,423.92s-10.5,6.75-16.25,8-7.5,3-2.75,5.25,19.25,3,26,1.5,9.25.5,10-2.5a19.12,19.12,0,0,0-.25-8.5C334.1,425.42,321.85,421.92,317.85,423.92Z" style="fill:#fff;stroke:#263238;stroke-linecap:round;stroke-linejoin:round"></path><path d="M304.1,288.92s1.25,19.5,4.75,34.75,5.25,35.75,7,47,3,29.75,3.25,38,.75,10.75.25,11.5-1.75,1-1.75,2-.25,3.25-.25,3.25,2.25,2,8.25,4.25,10,3.5,10,3.5a10.84,10.84,0,0,0,3.25-6.5c.75-4.5-1.5-9.75-1.5-12.75s6.5-29.25,4.25-40-6.75-23-6.75-29.5,2.5-25.75,2.5-25.75,6.5-10.75,6.75-18.5a132.63,132.63,0,0,0-.25-13.75S314.35,290.67,304.1,288.92Z" style="fill:#263238;stroke:#263238;stroke-linecap:round;stroke-linejoin:round"></path><path d="M309.25,219.31a60.1,60.1,0,0,0-3.66,19.38c0,10.05-1.46,31.81-2.93,41.31s-2.55,10.06,0,11.52,10.06,3.11,21.21,2.38,23-4.39,23.59-6,.18-3.84-.37-6,2-25.23-3.47-44.42-9.33-28.89-11.89-31.45l-2.56-2.56Z" style="fill:#4D63FF;stroke:#263238;stroke-linecap:round;stroke-linejoin:round"></path><path d="M292.06,170.67s-.36,6.77.55,9.15,1.28,5.11.37,6.94-2.75,4-1.47,5.12a15.22,15.22,0,0,0,2.74,1.83s3.66,6.58,5.49,10.24,2.74,4.57,4.57,3.84a27.49,27.49,0,0,0,3.84-2s5.12,5.85,5.85,7.31a9.23,9.23,0,0,0,2.56,2.74L329,202.3a19.13,19.13,0,0,1-4.39-8.41c-1.28-5.3-1.64-6-.36-8.41s3.84-2.56,2.37-8.41.55-7.68-4.75-11.33-15.36-4.21-18.28-4.21a10.85,10.85,0,0,0-6.58,2C295.53,164.64,292.06,170.67,292.06,170.67Z" style="fill:#fff;stroke:#263238;stroke-linecap:round;stroke-linejoin:round"></path><path d="M303.94,157.15s-13.16,4.2-15,5.85,2.75,11.7,2.75,11.7l9.14-5.31L297,174s-2,.54,5.12.18,10.6-2.93,10.6-2.93-4.57,5.12-4.2,6.58,2.92,3.84,3.65,4.94,1.83-.36,1.83-.36,1.1,4.57,1.46,3.47a39.35,39.35,0,0,0,.73-4.94s1.65-3.65,4-2.74,3.65,6.76,2,9.51a7.42,7.42,0,0,1-4.57,3.29s3.84,4.2,4.93,3.29,1.47-2.74,2.2-3.66,9.87-8.77,11-14.44-7.13-19.38-13.53-20.66S303.94,157.15,303.94,157.15Z" style="fill:#263238;stroke:#263238;stroke-linecap:round;stroke-linejoin:round"></path><path d="M293.05,180.8l1.49,6A1.54,1.54,0,0,0,295.9,188c1.67.15,4.72.3,5.12-.49.55-1.09-.18-8.22-1.1-9.32-1.12-1.35-3.67-.27-4.91.32a13.9,13.9,0,0,0-1.45.93A1.34,1.34,0,0,0,293.05,180.8Z" style="fill:#fff;stroke:#263238;stroke-linecap:round;stroke-linejoin:round"></path><polygon points="301.2 181.09 316.38 179.63 301.27 182.74 301.2 181.09" style="fill:#263238;stroke:#263238;stroke-linecap:round;stroke-linejoin:round"></polygon><path d="M316.74,191s2.2,6.4.73,8.22-6.21,4.76-6.21,4.76" style="fill:#fff;stroke:#263238;stroke-linecap:round;stroke-linejoin:round"></path><path d="M329,198.65s-23.4,21.39-22.85,21.94,4.72,6.9,4.72,6.9a163.3,163.3,0,0,1,10.33-13.78,159,159,0,0,1,12.19-11.59Z" style="fill:#263238;stroke:#263238;stroke-linecap:round;stroke-linejoin:round"></path><path d="M274,256.05s-6.58,0-7.86,1.47,2.19,2.92,3.47,3.1a22.15,22.15,0,0,0,4.76-.54Z" style="fill:#fff;stroke:#263238;stroke-linecap:round;stroke-linejoin:round"></path><path d="M276.89,254.41s-2.93-1.1-3.66,1.28,1.1,9.5,2.19,9.69,1.65-.55,1.65-2.74S276.89,254.41,276.89,254.41Z" style="fill:#fff;stroke:#263238;stroke-linecap:round;stroke-linejoin:round"></path><path d="M282,254s-3.84-2.19-5.31-.55.19,11.34.19,11.34c1.09.55,2.92-5.85,4.57-7.86a19.46,19.46,0,0,0,2-2.74Z" style="fill:#fff;stroke:#263238;stroke-linecap:round;stroke-linejoin:round"></path><path d="M305.77,254.23s-9.5,8.77-11.15,8.77-8.41-7.86-10.05-8.77-3.84,4.2-4.39,5.85a29.42,29.42,0,0,0-.73,5.48,1.07,1.07,0,0,0,1.82-.18,64.4,64.4,0,0,0,3.11-6l1.1,1.47" style="fill:#fff;stroke:#263238;stroke-linecap:round;stroke-linejoin:round"></path><path d="M290.6,260.44s-5.67.92-6.58,2.56-1.1,1.83.91,2,6.77.73,7.5-.18S291.33,260.62,290.6,260.44Z" style="fill:#fff;stroke:#263238;stroke-linecap:round;stroke-linejoin:round"></path><polygon points="257.69 271.59 235.02 222.05 248.91 222.78 268.48 269.22 257.69 271.59" style="fill:#7d7d7d;stroke:#263238;stroke-linecap:round;stroke-linejoin:round"></polygon><polygon points="267.2 265.74 257.14 270.13 312.17 270.13 304.68 265.38 267.2 265.74" style="fill:#7d7d7d;stroke:#263238;stroke-linecap:round;stroke-linejoin:round"></polygon><path d="M326.8,218.94s-6.95,1.28-8.05,7.5,2,30,2,30.53v4.39c0,1.09,4.39.73,9.51,3.1s8.23,6.22,8.23,3.29-.73-38-.73-38" style="fill:#4D63FF;stroke:#263238;stroke-linecap:round;stroke-linejoin:round"></path><line x1="338.13" y1="243.8" x2="341.06" y2="233.75" style="fill:#fff;stroke:#263238;stroke-linecap:round;stroke-linejoin:round"></line><path d="M317.29,258.43l.91,7.86s19.93,11.7,20.48,11.34,1.1-1.47,1.1-3.29,2.92-11.34-.55-13.53S323,258.25,323,258.25,319.3,257.52,317.29,258.43Z" style="fill:#263238;stroke:#263238;stroke-linecap:round;stroke-linejoin:round"></path><path d="M319.67,265.93s-18.83,6.76-31.08,7.49-13.71,0-13.71,0-1.1-4.39-2.93-5.48-7.68-.19-8.78-.92-1.09-3.1-1.82-3.84-4-.36-4-.36-1.64.91-1.64,2.19-1.1,9.51.36,10.24,20.48,4.39,27.61,4.39,28.16,2,38.94.36,14.81-2.92,14.45-5.85S323.14,265.19,319.67,265.93Z" style="fill:#fff;stroke:#263238;stroke-linecap:round;stroke-linejoin:round"></path><line x1="256.41" y1="263.92" x2="256.78" y2="273.6" style="fill:#fff;stroke:#263238;stroke-linecap:round;stroke-linejoin:round"></line><line x1="259.34" y1="263" x2="259.88" y2="272.51" style="fill:#fff;stroke:#263238;stroke-linecap:round;stroke-linejoin:round"></line><path d="M263.17,267s-.73,2.2.55,3.11,6.22,1.65,6.22,1.65" style="fill:#fff;stroke:#263238;stroke-linecap:round;stroke-linejoin:round"></path><rect x="308.88" y="240.15" width="8.78" height="14.44" style="fill:#fff;stroke:#263238;stroke-linecap:round;stroke-linejoin:round"></rect></g></svg>